<?xml version="1.0" standalone="no"?>
<!DOCTYPE svg PUBLIC "-//W3C//DTD SVG 20010904//EN"
 "http://www.w3.org/TR/2001/REC-SVG-20010904/DTD/svg10.dtd">
<svg version="1.0" xmlns="http://www.w3.org/2000/svg"
 width="512.000000pt" height="512.000000pt" viewBox="0 0 512.000000 512.000000"
 preserveAspectRatio="xMidYMid meet">
<metadata>
Created by potrace 1.14, written by Peter Selinger 2001-2017
</metadata>
<g transform="translate(0.000000,512.000000) scale(0.100000,-0.100000)"
fill="#000000" stroke="none">
<path d="M2338 4754 c-4 -3 -26 -7 -50 -10 -23 -2 -54 -7 -68 -10 -14 -3 -25
-4 -25 -2 0 1 -11 -5 -25 -15 -13 -9 -42 -17 -63 -17 -43 0 -81 -16 -72 -31 4
-5 3 -9 -2 -8 -15 2 -53 -13 -53 -22 0 -5 -3 -8 -7 -7 -14 3 -64 -14 -58 -20
7 -8 -47 -42 -57 -36 -4 3 -8 1 -8 -5 0 -5 -14 -13 -32 -16 -42 -10 -109 -55
-101 -68 3 -5 2 -8 -3 -4 -5 3 -18 -1 -29 -9 -10 -8 -15 -14 -9 -14 5 0 -29
-25 -76 -55 -47 -30 -81 -55 -77 -55 9 0 1 -10 -76 -93 -32 -34 -60 -72 -63
-84 -4 -13 -10 -23 -14 -23 -5 0 -11 -13 -15 -29 -3 -16 -17 -41 -31 -56 -13
-14 -27 -37 -30 -51 -3 -13 -10 -27 -15 -30 -5 -3 -7 -10 -4 -15 4 -5 1 -9 -4
-9 -6 0 -11 -7 -11 -15 0 -8 -4 -15 -9 -15 -20 0 -30 -148 -15 -227 4 -20 2
-33 -4 -33 -26 0 -51 -268 -31 -327 4 -11 9 -68 10 -125 1 -56 4 -107 8 -113
3 -5 7 -44 8 -85 1 -41 7 -86 15 -101 9 -18 12 -59 9 -150 -7 -227 -6 -564 2
-594 5 -16 14 -33 20 -37 7 -4 8 -8 3 -8 -5 0 -3 -7 4 -15 7 -8 10 -15 6 -15
-3 0 -1 -11 4 -25 15 -38 22 -77 21 -108 -1 -16 2 -34 6 -40 4 -6 8 -18 9 -27
3 -28 12 -65 23 -93 6 -15 10 -45 10 -65 -2 -56 61 -201 137 -317 21 -33 57
-94 78 -135 81 -155 183 -366 189 -390 4 -14 39 -81 78 -150 39 -69 79 -138
87 -155 46 -89 152 -203 267 -286 44 -32 99 -72 123 -89 49 -36 67 -42 207
-71 110 -23 255 -23 310 1 17 7 40 14 52 16 23 3 178 99 248 153 22 17 67 53
100 79 87 68 222 225 239 279 4 11 28 50 54 85 84 111 225 342 248 403 6 17
28 57 48 90 20 33 36 68 36 78 0 10 13 35 30 55 38 49 54 88 80 202 11 52 30
123 40 158 13 41 20 92 20 150 0 48 5 105 12 127 6 22 10 78 10 125 -1 57 3
89 12 100 8 8 16 24 19 35 11 38 -30 562 -48 610 -4 11 -14 35 -22 53 -8 18
-16 42 -18 54 -3 12 -9 24 -14 27 -15 10 -50 78 -50 98 1 10 -3 77 -8 149 -8
114 -12 135 -33 164 -14 19 -26 46 -27 60 -2 14 -6 45 -10 70 -3 25 -8 90 -9
145 -4 117 -10 157 -32 205 -9 19 -15 38 -14 43 1 4 -2 7 -7 7 -9 0 -26 48
-23 63 1 4 -2 7 -6 7 -5 0 -15 18 -22 40 -7 22 -17 40 -22 40 -4 0 -7 3 -7 8
1 4 0 10 -1 15 -3 9 -4 15 -13 60 -5 20 -12 37 -17 37 -6 0 -10 5 -10 10 0 13
-68 79 -74 72 -3 -3 -8 3 -12 12 -3 9 -11 13 -16 10 -6 -4 -13 -2 -17 4 -3 6
-19 13 -35 16 -39 7 -70 29 -130 92 -56 59 -64 67 -89 104 -10 14 -18 24 -20
23 -6 -6 -47 10 -47 18 0 5 -5 9 -10 9 -6 0 -24 13 -41 30 -18 16 -35 27 -39
25 -5 -3 -10 -1 -12 5 -3 9 -48 18 -105 22 -7 1 -13 5 -13 10 0 4 -8 8 -18 8
-10 0 -46 11 -80 25 -60 24 -68 25 -315 25 -140 0 -256 -3 -259 -6z"/>
</g>
</svg>
